<svg xmlns="http://www.w3.org/2000/svg" viewBox="0 0 885.52 334.57"><defs><style>.cls-1{fill:#ce9b63;}</style></defs><g id="Layer_2" data-name="Layer 2"><g id="Layer_1-2" data-name="Layer 1"><path class="cls-1" d="M136.45,315c-4.15-2-6.5-3.72-6.5-7.22a5.25,5.25,0,0,1,5.62-5.42c4.29,0,5.85,3.61,6.74,6.81l1.53-.27c-.44-3.27-.68-5.31-.88-7.08a21.55,21.55,0,0,0-6.61-1.2c-6.64,0-10.66,4.13-10.66,9.1,0,5.48,4.87,8,8.41,9.74,3.88,2,6.61,3.74,6.61,7.36s-2.18,5.85-5.89,5.85c-5.21,0-7.7-5.21-8.55-8.38l-1.53.45a74.24,74.24,0,0,0,1.39,7.93,16.33,16.33,0,0,0,2.52,1.06,15.79,15.79,0,0,0,5.11.82c7,0,11.51-4.26,11.51-9.61S140.78,317.13,136.45,315Z"/><path class="cls-1" d="M266.52,300.13a2.77,2.77,0,0,1-2.66,1.26H243.22c-1.5,0-2.14,0-2.89-1.26h-1.09c-.1,2.76-.34,6.07-.58,9.3h1.53c.65-2.35,1.09-3.81,1.74-4.66.68-1.06,1.74-1.54,6.16-1.54h3v24.29c0,4-.45,4.53-5.11,4.83v1.43H261v-1.43c-4.83-.3-5.27-.88-5.27-4.83V303.23h3.47c3.88,0,4.77.38,5.62,1.54a11.93,11.93,0,0,1,1.74,4.66l1.53-.17c-.24-3-.51-6.84-.51-9.13Z"/><path class="cls-1" d="M379.72,300.64h0c-11.07,0-17.85,8.25-17.85,17.27,0,9.61,7.63,16.66,17.2,16.66s17.75-6.65,17.75-17.41C396.79,307.18,388.68,300.64,379.72,300.64Zm.45,32.05c-7.33,0-12.74-6.91-12.74-16.07,0-9.44,5.45-14.1,11.17-14.1h0c6.71,0,12.5,5.52,12.5,16C391.13,328.13,385.89,332.69,380.17,332.69Z"/><path class="cls-1" d="M514.49,302.89c3.64.17,4.83.82,5.07,3.17a78.18,78.18,0,0,1,.34,8.31V326h-.14l-21.69-24.59h-7.83v1.5c2.38.17,3.47.58,4.53,1.81s1.09,1.46,1.09,5.11V320.5a65,65,0,0,1-.41,8.51c-.24,2.49-1.53,3.14-4.46,3.34v1.43h12.19v-1.43c-3.51-.27-4.67-.88-4.91-3.47a83.54,83.54,0,0,1-.34-8.38l0-12.16H498l22.37,26h1.64V314.37a80.52,80.52,0,0,1,.3-8.48c.24-2.28,1.47-2.86,4.29-3v-1.5H514.49Z"/><path class="cls-1" d="M642.61,330.31c-1.16,1.29-2.69,1.63-6.41,1.63-2.31,0-4.22,0-5.21-.58s-1.22-1.73-1.22-4.08v-9.16h4.66c4.46,0,4.84.27,5.55,3.91h1.54v-9.77H640c-.64,3.37-1,3.78-5.55,3.78h-4.66V304.87c0-1.5.1-1.64,1.77-1.64h3.78c3.51,0,4.9.34,5.65,1.43a13.77,13.77,0,0,1,1.67,4.33l1.57-.21c-.21-2.79-.41-6.09-.48-7.39H620.64v1.5c4,.34,4.39.48,4.39,5v19.52c0,4.08-.44,4.56-5,4.9v1.43h25c.44-1.6,1.43-6.2,1.77-8.07l-1.57-.2A17.19,17.19,0,0,1,642.61,330.31Z"/><path class="cls-1" d="M752.2,315c-4.15-2-6.5-3.72-6.5-7.22a5.25,5.25,0,0,1,5.62-5.42c4.29,0,5.86,3.61,6.74,6.81l1.53-.27c-.44-3.27-.68-5.31-.88-7.08a21.55,21.55,0,0,0-6.61-1.2c-6.64,0-10.66,4.13-10.66,9.1,0,5.48,4.87,8,8.41,9.74,3.88,2,6.61,3.74,6.61,7.36s-2.18,5.85-5.89,5.85c-5.21,0-7.7-5.21-8.55-8.38l-1.53.45a74.24,74.24,0,0,0,1.39,7.93,16.33,16.33,0,0,0,2.52,1.06,15.79,15.79,0,0,0,5.11.82c7,0,11.51-4.26,11.51-9.61S756.53,317.13,752.2,315Z"/><rect class="cls-1" x="80.11" y="156.21" width="192.26" height="40.05"/><rect class="cls-1" x="80.11" y="76.1" width="192.26" height="40.05"/><polygon class="cls-1" points="0 0 0 40.05 0 232.31 0 272.37 40.05 272.37 272.37 272.37 272.37 232.31 40.05 232.31 40.05 40.05 272.37 40.05 272.37 0 40.05 0 0 0"/><polygon class="cls-1" points="308.28 0 308.28 40.05 308.28 232.31 308.28 272.37 348.34 272.37 540.6 272.37 580.65 272.37 580.65 232.31 580.65 120.16 580.65 80.11 540.6 80.11 432.45 80.11 392.4 80.11 392.4 120.16 392.4 152.21 392.4 192.26 432.45 192.26 500.54 192.26 500.54 152.21 432.45 152.21 432.45 120.16 540.6 120.16 540.6 232.31 348.34 232.31 348.34 40.05 580.65 40.05 580.65 0 348.34 0 308.28 0"/><path class="cls-1" d="M885.24,28,752.61,160.67,620,28V84.68l113,113v77h40V196.87L885.24,84.68Z"/><path class="cls-1" d="M620.8,192.83l36.09,36.09v45.77h40.05l.33-62L620.8,136.18Z"/><path class="cls-1" d="M809.05,212.65l.33,62h40V228.92l36.09-36.09V136.18Z"/><path class="cls-1" d="M754.16,107.61,861.49.28,861.2,0H805.13L753.61,51.52,702.09,0H646l-.28.28Q699.4,54,753.06,107.61Z"/></g></g></svg>